<svg width="164" height="150" viewBox="0 0 164 150" fill="none" xmlns="http://www.w3.org/2000/svg">
<path d="M47.7525 0.000113154H156.963C157.869 -0.00520213 158.767 0.176796 159.6 0.534689C160.432 0.892582 161.182 1.41864 161.802 2.0799C163.08 3.45139 163.793 5.25575 163.797 7.13084V142.53C163.793 144.405 163.08 146.209 161.802 147.581C161.182 148.242 160.432 148.768 159.6 149.126C158.767 149.484 157.869 149.666 156.963 149.66H47.7525C46.8402 149.644 45.9403 149.447 45.1044 149.081C44.2685 148.716 43.5132 148.188 42.8819 147.529C42.2507 146.871 41.7561 146.093 41.4265 145.243C41.0968 144.392 40.9387 143.484 40.9613 142.572V7.13084C40.9155 5.29168 41.5998 3.50921 42.8644 2.17303C44.129 0.836853 45.8711 0.0556344 47.71 0.000113154H47.7525Z" fill="#21A366"/>
<path d="M40.9612 74.8303V142.742C40.9156 143.654 41.0511 144.566 41.3598 145.426C41.6685 146.286 42.1444 147.076 42.7599 147.75C43.3755 148.425 44.1186 148.971 44.9463 149.357C45.774 149.744 46.6701 149.962 47.5827 150H156.963C157.881 149.983 158.786 149.786 159.627 149.418C160.468 149.05 161.228 148.519 161.863 147.857C162.499 147.194 162.996 146.412 163.328 145.556C163.66 144.7 163.819 143.787 163.797 142.869V74.9576L40.9612 74.8303Z" fill="#185C37"/>
<path d="M40.9614 37.4364H163.797V74.8727H40.9614V37.4364Z" fill="#107C41"/>
<path d="M156.963 0.000113154H102.379V112.267H163.797V7.13084C163.793 5.25575 163.08 3.45139 161.802 2.0799C161.182 1.41864 160.432 0.892581 159.599 0.534689C158.767 0.176796 157.869 -0.00520213 156.963 0.000113154Z" fill="#33C481"/>
<path d="M102.379 37.4364H163.839V74.8727H102.379V37.4364Z" fill="#21A366"/>
<path d="M102.379 74.8303H163.839V112.267H102.379V74.8303Z" fill="#107C41"/>
<g opacity="0.67">
<path opacity="0.05" d="M84.4246 30.5603H48.7285C48.038 30.5825 47.3839 30.8754 46.9074 31.3757C46.4309 31.876 46.1703 32.5436 46.1818 33.2343V116.469C46.1705 116.814 46.2274 117.159 46.3493 117.482C46.4711 117.806 46.6556 118.102 46.8921 118.355C47.1286 118.607 47.4126 118.81 47.7277 118.953C48.0428 119.095 48.3828 119.174 48.7285 119.185H84.4246C85.1102 119.169 85.7859 119.017 86.413 118.739C87.0401 118.462 87.6063 118.063 88.0793 117.566C88.5523 117.07 88.9228 116.485 89.1697 115.845C89.4165 115.205 89.5349 114.523 89.518 113.837V35.9084C89.5349 35.2227 89.4165 34.5405 89.1697 33.9006C88.9228 33.2607 88.5523 32.6757 88.0793 32.179C87.6063 31.6824 87.0401 31.2838 86.413 31.0061C85.7859 30.7283 85.1102 30.5768 84.4246 30.5603Z" fill="black"/>
<path opacity="0.1" d="M75.0444 44.6096H41.0886V130.518H75.0444C76.8719 130.507 78.6208 129.773 79.9091 128.477C81.1974 127.18 81.9205 125.427 81.9205 123.599V51.4432C81.8983 49.6304 81.1654 47.8987 79.8795 46.6207C78.5936 45.3427 76.8573 44.6206 75.0444 44.6096Z" fill="black"/>
<path opacity="0.2" d="M75.0444 39.6435H41.0886V125.467H75.0444C76.8646 125.456 78.6071 124.728 79.8942 123.441C81.1813 122.154 81.9094 120.411 81.9205 118.591V46.4347C81.8873 44.6293 81.1495 42.9084 79.8648 41.6395C78.58 40.3706 76.8501 39.6543 75.0444 39.6435Z" fill="black"/>
<path opacity="0.1" d="M82.4299 32.2581H46.7763C46.0931 32.2802 45.4454 32.5671 44.9701 33.0583C44.4948 33.5494 44.2292 34.2062 44.2296 34.8897V118.166C44.2182 118.51 44.2754 118.852 44.3978 119.173C44.5202 119.495 44.7054 119.788 44.9424 120.037C45.1795 120.286 45.4637 120.485 45.7786 120.623C46.0934 120.761 46.4326 120.835 46.7763 120.84H82.4299C83.1191 120.829 83.7994 120.682 84.4314 120.407C85.0634 120.131 85.6346 119.734 86.1121 119.237C86.5895 118.739 86.9638 118.152 87.2133 117.51C87.4628 116.867 87.5826 116.182 87.5657 115.492V37.5637C87.5883 36.8787 87.4738 36.1961 87.2285 35.556C86.9832 34.916 86.6122 34.3315 86.1376 33.8371C85.6629 33.3426 85.094 32.9482 84.4645 32.677C83.8351 32.4059 83.1577 32.2634 82.4723 32.2581H82.4299Z" fill="black"/>
<path opacity="0.1" d="M82.3874 34.4228H46.6913C46.3457 34.4338 46.0056 34.5127 45.6905 34.6552C45.3754 34.7977 45.0915 35.0009 44.8549 35.2532C44.6184 35.5055 44.434 35.8019 44.3121 36.1255C44.1902 36.4492 44.1333 36.7936 44.1446 37.1393V119.525C44.1438 120.212 44.408 120.874 44.8823 121.372C45.3565 121.87 46.0044 122.166 46.6913 122.199H82.3874C83.0751 122.172 83.7505 122.008 84.3741 121.717C84.9978 121.426 85.5571 121.013 86.0195 120.503C86.4819 119.993 86.838 119.397 87.067 118.748C87.2961 118.099 87.3935 117.41 87.3534 116.723V39.7708C87.3994 38.4044 86.903 37.0752 85.9726 36.0733C85.0423 35.0714 83.7535 34.4781 82.3874 34.4228Z" fill="black"/>
<path opacity="0.01" d="M76.6149 28.141H40.9613V98.0051H40.452V108.956C40.4463 109.296 40.5078 109.634 40.6327 109.95C40.7577 110.266 40.9437 110.555 41.1802 110.799C41.4167 111.044 41.699 111.239 42.011 111.374C42.323 111.509 42.6586 111.582 42.9987 111.587L71.3518 106.155C74.1956 106.155 81.7507 103.608 81.7507 100.679V33.489C81.7676 32.7999 81.6479 32.1142 81.3984 31.4716C81.1489 30.829 80.7747 30.2421 80.2972 29.7449C79.8197 29.2477 79.2485 28.85 78.6165 28.5747C77.9845 28.2994 77.3042 28.152 76.6149 28.141Z" fill="black"/>
<path opacity="0.2" d="M75.0444 42.0205H41.0886V127.844H75.0444C76.8646 127.833 78.6071 127.105 79.8942 125.818C81.1813 124.53 81.9094 122.788 81.9205 120.968V48.8116C81.8873 47.0062 81.1495 45.2853 79.8648 44.0164C78.58 42.7475 76.8501 42.0312 75.0444 42.0205Z" fill="black"/>
<path opacity="0.3" d="M75.0869 34.5077H41.131V118.464H75.0869C76.9032 118.452 78.6412 117.723 79.9216 116.435C81.2019 115.146 81.9205 113.404 81.9205 111.587V41.3838C81.9205 39.5675 81.2019 37.8249 79.9216 36.5366C78.6412 35.2483 76.9032 34.5189 75.0869 34.5077Z" fill="black"/>
<path opacity="0.3" d="M75.0444 34.5077H41.0886V118.209H75.0444C76.868 118.209 78.617 117.484 79.9065 116.195C81.1961 114.905 81.9205 113.156 81.9205 111.333V41.3838C81.9205 39.5601 81.1961 37.8112 79.9065 36.5217C78.617 35.2321 76.868 34.5077 75.0444 34.5077Z" fill="black"/>
<path opacity="0.3" d="M75.0444 36.2055H41.0886V122.029H75.0444C75.9489 122.035 76.8456 121.861 77.6824 121.517C78.5192 121.173 79.2795 120.667 79.9191 120.028C80.5587 119.388 81.065 118.628 81.4085 117.791C81.7521 116.954 81.9261 116.057 81.9205 115.153V42.9967C81.8873 41.1913 81.1495 39.4704 79.8648 38.2015C78.58 36.9326 76.8501 36.2163 75.0444 36.2055Z" fill="black"/>
<path opacity="0.2" d="M75.0444 37.8185H41.0886V123.642H75.0444C76.8758 123.619 78.6247 122.876 79.9118 121.573C81.1989 120.27 81.9206 118.512 81.9205 116.681V44.5247C81.8762 42.7306 81.1322 41.025 79.8475 39.772C78.5627 38.519 76.839 37.8179 75.0444 37.8185Z" fill="black"/>
<path opacity="0.1" d="M81.5384 37.1393H45.8848C45.5375 37.1391 45.1938 37.2088 44.874 37.3442C44.5542 37.4796 44.2649 37.6779 44.0233 37.9274C43.7817 38.1769 43.5929 38.4725 43.4679 38.7964C43.3428 39.1204 43.2843 39.4662 43.2956 39.8133V117.784C43.29 118.13 43.3526 118.473 43.4796 118.795C43.6067 119.116 43.7959 119.409 44.0363 119.658C44.2767 119.906 44.5637 120.105 44.8809 120.242C45.1981 120.379 45.5392 120.453 45.8848 120.458H81.5384C82.2241 120.442 82.8998 120.29 83.5269 120.013C84.154 119.735 84.7202 119.336 85.1932 118.84C85.6662 118.343 86.0367 117.758 86.2836 117.118C86.5304 116.478 86.6487 115.796 86.6317 115.11V42.2751C86.6208 40.9237 86.0821 39.6301 85.1305 38.6705C84.1788 37.711 82.8897 37.1614 81.5384 37.1393Z" fill="black"/>
<path opacity="0.2" d="M77.5911 37.1393H41.9799C41.6773 37.0358 41.3488 37.0358 41.0461 37.1393V118.464C41.3562 118.503 41.6699 118.503 41.9799 118.464H77.676C78.3617 118.447 79.0374 118.295 79.6645 118.018C80.2916 117.74 80.8577 117.341 81.3307 116.845C81.8037 116.348 82.1743 115.763 82.4211 115.123C82.668 114.483 82.7863 113.801 82.7694 113.115V42.2751C82.792 41.588 82.6776 40.9033 82.4328 40.2609C82.188 39.6185 81.8178 39.0313 81.3437 38.5334C80.8696 38.0356 80.3011 37.6372 79.6714 37.3614C79.0417 37.0856 78.3634 36.9379 77.676 36.927L77.5911 37.1393Z" fill="black"/>
<path opacity="0.3" d="M68.6352 32.3006H42.659C42.3153 32.306 41.9762 32.3798 41.6613 32.5177C41.3465 32.6556 41.0622 32.8548 40.8252 33.1037C40.5881 33.3526 40.403 33.6463 40.2806 33.9675C40.1582 34.2887 40.101 34.631 40.1123 34.9746V113.073C40.1119 113.756 40.3775 114.413 40.8528 114.904C41.3281 115.396 41.9759 115.683 42.659 115.705H78.3551C79.7324 115.671 81.0405 115.095 81.9946 114.101C82.9487 113.107 83.4713 111.776 83.4485 110.399V39.9831C83.4485 36.8421 76.53 35.1019 75.766 34.1257C73.5758 32.9388 71.1262 32.3119 68.6352 32.3006Z" fill="black"/>
<path opacity="0.1" d="M79.8408 40.7471H44.1447C43.4578 40.7798 42.8099 41.076 42.3356 41.5739C41.8614 42.0719 41.5973 42.7335 41.598 43.4211V121.562C41.5867 121.908 41.6436 122.252 41.7655 122.576C41.8873 122.899 42.0718 123.196 42.3083 123.448C42.5448 123.7 42.8288 123.904 43.1439 124.046C43.459 124.188 43.799 124.267 44.1447 124.278H79.8408C81.2144 124.234 82.5162 123.654 83.468 122.663C84.4197 121.672 84.9459 120.347 84.9341 118.973V46.0951C84.9685 44.7176 84.4568 43.3823 83.5106 42.3804C82.5644 41.3786 81.2605 40.7915 79.8832 40.7471H79.8408Z" fill="black"/>
<path opacity="0.1" d="M76.615 29.6266H40.9613V99.5331H40.452V110.484C40.4407 110.827 40.4978 111.17 40.6202 111.491C40.7426 111.812 40.9278 112.106 41.1648 112.355C41.4019 112.604 41.6861 112.803 42.001 112.941C42.3158 113.079 42.655 113.152 42.9987 113.158L71.3518 107.683C74.1956 107.683 81.7507 105.136 81.7507 102.207V34.9746C81.7676 34.2854 81.6479 33.5998 81.3984 32.9572C81.1489 32.3146 80.7747 31.7277 80.2972 31.2305C79.8197 30.7332 79.2485 30.3355 78.6165 30.0602C77.9845 29.785 77.3042 29.6376 76.615 29.6266Z" fill="black"/>
<path opacity="0.15" d="M76.615 30.9848H40.9613V100.806H40.452V111.715C40.4407 112.058 40.4978 112.401 40.6202 112.722C40.7426 113.043 40.9278 113.337 41.1648 113.586C41.4019 113.834 41.6861 114.034 42.001 114.172C42.3158 114.31 42.655 114.383 42.9987 114.389L71.3518 108.956C74.1956 108.956 81.7507 106.409 81.7507 103.48V36.3328C81.7676 35.6437 81.6479 34.958 81.3984 34.3154C81.1489 33.6728 80.7747 33.0859 80.2972 32.5887C79.8197 32.0915 79.2485 31.6937 78.6165 31.4184C77.9845 31.1432 77.3042 30.9958 76.615 30.9848Z" fill="black"/>
</g>
<path d="M6.83571 32.0459H75.0869C76.9408 32.1014 78.698 32.8857 79.9773 34.2286C81.2566 35.5715 81.9549 37.3646 81.9206 39.219V110.484C81.9897 112.339 81.3242 114.146 80.0685 115.513C78.8128 116.88 77.0684 117.696 75.2143 117.784H6.83571C5.91789 117.768 5.01242 117.57 4.17138 117.202C3.33035 116.834 2.57037 116.304 1.93522 115.641C1.30008 114.978 0.802315 114.196 0.470548 113.34C0.13878 112.484 -0.0204398 111.571 0.00209824 110.654V39.219C-0.0322528 37.3646 0.665945 35.5715 1.94526 34.2286C3.22458 32.8857 4.98182 32.1014 6.83571 32.0459Z" fill="#107C41"/>
<path d="M18.593 101.57L34.6795 75.3396L19.9087 49.4483H31.7933L39.8154 66.0018C40.3854 67.1922 40.8954 68.4105 41.3434 69.652C41.8527 68.4211 42.4469 67.1478 43.0411 66.0018L51.5301 49.5756H62.4384L47.4554 75.3396L62.9478 101.528H51.3179L41.98 83.489C41.5554 82.7034 41.1729 81.8958 40.834 81.0697C40.553 81.886 40.1829 82.6689 39.7304 83.4041L30.1804 101.613L18.593 101.57Z" fill="white"/>
</svg>
