<svg width="117" height="150" viewBox="0 0 117 150" fill="none" xmlns="http://www.w3.org/2000/svg">
<g clip-path="url(#clip0)">
<path fill-rule="evenodd" clip-rule="evenodd" d="M11.7711 0H70.8021L116.666 46.2747V138.122C116.666 144.654 111.368 149.999 104.895 149.999H11.7711C5.29716 149.999 0 144.654 0 138.122V11.8766C0 5.34465 5.29716 0 11.7711 0V0Z" fill="url(#paint0_linear)"/>
<path fill-rule="evenodd" clip-rule="evenodd" d="M116.666 111.202V138.123C116.666 144.655 111.368 150 104.895 150H11.7711C5.29716 150 0 144.655 0 138.123V111.202H116.666Z" fill="#C30C04"/>
<path fill-rule="evenodd" clip-rule="evenodd" d="M36.6655 31.3851H81.0044C82.7787 31.3851 84.2301 32.8495 84.2301 34.6397V91.5831C84.2301 93.3733 82.7787 94.8377 81.0044 94.8377H36.6655C34.8911 94.8377 33.4398 93.3733 33.4398 91.5831V34.6397C33.4398 32.8495 34.8911 31.3851 36.6655 31.3851ZM39.2591 36.9927H78.4096V89.2301H39.2591V36.9927Z" fill="white"/>
<path d="M54.8675 43.328H41.9627V46.6706H54.8675V43.328Z" fill="white"/>
<path d="M54.8675 50.4532H41.9627V53.7957H54.8675V50.4532Z" fill="white"/>
<path d="M74.6598 57.6673H41.9617V61.0099H74.6598V57.6673Z" fill="white"/>
<path d="M74.6598 65.0575H41.9617V68.4001H74.6598V65.0575Z" fill="white"/>
<path d="M74.6598 72.1175H41.9617V75.4601H74.6598V72.1175Z" fill="white"/>
<path d="M74.6598 79.4642H41.9617V82.8068H74.6598V79.4642Z" fill="white"/>
<path fill-rule="evenodd" clip-rule="evenodd" d="M58.791 43.328H73.5702C74.1699 43.328 74.6598 43.8234 74.6598 44.4274V53.7968H58.791V43.328Z" fill="white"/>
<path fill-rule="evenodd" clip-rule="evenodd" d="M75.1271 43.6615L116.666 46.2752V85.5736L75.1271 43.6615Z" fill="url(#paint1_linear)" fill-opacity="0.2"/>
<path fill-rule="evenodd" clip-rule="evenodd" d="M116.667 46.2763H82.5744C76.1004 46.2763 70.8033 40.9316 70.8033 34.3996V0.00156403L116.668 46.2774L116.667 46.2763Z" fill="#C30C04"/>
<path d="M32.2331 118.428C35.2983 118.428 37.695 119.152 39.423 120.598C41.1521 122.094 42.0167 124.18 42.0167 126.857C42.0167 129.462 41.1521 131.5 39.423 132.97C37.6422 134.465 35.2445 135.214 32.2331 135.214H28.6575V143.751H23.4314V118.427H32.2331V118.428ZM32.2331 130.946C35.2714 130.946 36.7906 129.607 36.7906 126.929C36.7906 124.228 35.2714 122.878 32.2331 122.878H28.6575V130.945H32.2331V130.946ZM57.1534 118.428C61.0757 118.428 64.2195 119.574 66.5698 121.865C68.9213 124.18 70.0991 127.291 70.0991 131.199C70.0991 135.057 68.9331 138.121 66.6086 140.388C64.2841 142.631 61.1801 143.752 57.3095 143.752H47.3095V118.428H57.1523H57.1534ZM56.8982 139.23C59.3078 139.23 61.1941 138.603 62.5561 137.348C64.1011 135.974 64.8741 133.948 64.8741 131.27C64.8741 128.497 64.1011 126.374 62.5561 124.904C61.1413 123.601 59.2421 122.95 56.8584 122.95H52.5367V139.23H56.8982ZM80.9745 122.95V129.173H90.5223V133.695H80.9745V143.752H75.7484V118.428H93.2333V122.95H80.9745Z" fill="white"/>
</g>
<defs>
<linearGradient id="paint0_linear" x1="105.18" y1="103.105" x2="10.8619" y2="0.838549" gradientUnits="userSpaceOnUse">
<stop stop-color="#DD1112"/>
<stop offset="1" stop-color="#E21F25"/>
</linearGradient>
<linearGradient id="paint1_linear" x1="103.087" y1="53.1353" x2="125.65" y2="80.7391" gradientUnits="userSpaceOnUse">
<stop/>
<stop offset="0.14902" stop-color="#610602"/>
<stop offset="1" stop-color="#C30C04"/>
</linearGradient>
<clipPath id="clip0">
<rect width="116.667" height="150" fill="white"/>
</clipPath>
</defs>
</svg>
