<svg width="172" height="150" viewBox="0 0 172 150" fill="none" xmlns="http://www.w3.org/2000/svg">
<path d="M96.435 5.04434e-05C106.286 -0.0113773 116.042 1.919 125.146 5.6808C134.25 9.4426 142.524 14.962 149.493 21.9235C156.463 28.885 161.992 37.152 165.765 46.2518C169.537 55.3517 171.478 65.1058 171.478 74.9566C171.484 84.8094 169.548 94.5667 165.782 103.671C162.015 112.776 156.492 121.049 149.527 128.018C142.562 134.987 134.292 140.515 125.19 144.287C116.088 148.059 106.331 150 96.4785 150C86.6257 150 76.8694 148.059 67.7672 144.287C58.6649 140.515 50.3952 134.987 43.4302 128.018C36.4653 121.049 30.9416 112.776 27.1751 103.671C23.4086 94.5667 21.4728 84.8094 21.4785 74.9566C21.49 55.0804 29.3909 36.0216 43.4455 21.967C57.5 7.91245 76.5588 0.0115695 96.435 5.04434e-05Z" fill="#D35230"/>
<path d="M96.4349 6.48499e-05C76.5543 0.03455 57.4978 7.9474 43.4401 22.0052C29.3823 36.0629 21.4694 55.1194 21.4349 75H96.4349V6.48499e-05Z" fill="#ED6C47"/>
<path d="M96.4349 6.48499e-05C116.32 0.0345138 135.381 7.94598 149.445 22.0025C163.51 36.059 171.432 55.1154 171.478 75H96.4349V6.48499e-05Z" fill="#FF8F6B"/>
<g opacity="0.67">
<path opacity="0.05" d="M35.9563 119.435H87.8693C88.6123 119.488 89.3582 119.39 90.0624 119.147C90.7665 118.905 91.4143 118.522 91.9667 118.022C92.5191 117.523 92.9648 116.917 93.2768 116.24C93.5888 115.564 93.7608 114.832 93.7823 114.087V35.8262C93.7598 35.1009 93.5946 34.3872 93.2962 33.7259C92.9977 33.0645 92.5718 32.4685 92.0428 31.9718C91.5139 31.4751 90.8922 31.0876 90.2134 30.8313C89.5345 30.5751 88.8119 30.4551 88.0867 30.4783H35.9128C29.3784 39.2258 24.8509 49.3051 22.652 60.0001V89.8261C24.8296 100.629 29.3733 110.815 35.9563 119.652V119.435Z" fill="black"/>
<path opacity="0.1" d="M46.4349 130.696H77.6524C82.0002 130.696 85.1306 121.696 85.1306 117.652V51.6088C84.9878 49.7249 84.1373 47.965 82.75 46.6826C81.3627 45.4001 79.5416 44.6903 77.6524 44.6957H27.9132C21.4841 59.153 19.8262 75.2821 23.1798 90.745C26.5335 106.208 34.7245 120.201 46.5654 130.696H46.4349Z" fill="black"/>
<path opacity="0.2" d="M41.6087 125.739H77.8695C79.7095 125.691 81.4661 124.961 82.7993 123.692C84.1325 122.423 84.9476 120.705 85.0869 118.87V46.6522C84.9442 44.7684 84.0937 43.0085 82.7064 41.726C81.3192 40.4436 79.4979 39.7338 77.6087 39.7392H30.3043C22.9774 53.4606 20.1278 69.1309 22.1551 84.5533C24.1823 99.9758 30.9846 114.377 41.6087 125.739Z" fill="black"/>
<path opacity="0.1" d="M37.4784 121.13H85.9132C87.3821 121.177 88.8099 120.642 89.8851 119.64C90.9604 118.638 91.5957 117.251 91.6524 115.783V37.5218C91.6181 36.0418 91.0001 34.6354 89.9332 33.6092C88.8662 32.583 87.4369 32.0202 85.9567 32.0435H34.9132C25.6642 45.1789 20.9159 60.9554 21.3782 77.0137C21.8406 93.0719 27.4889 108.549 37.4784 121.13Z" fill="black"/>
<path opacity="0.1" d="M37.2609 122.522H84.5653C87.7392 122.522 90.2609 115.522 90.2609 112.522V39.8696C90.2384 39.1444 90.0732 38.4307 89.7747 37.7693C89.4763 37.108 89.0504 36.5119 88.5214 36.0153C87.9924 35.5186 87.3708 35.1311 86.6919 34.8748C86.0131 34.6186 85.2905 34.4986 84.5653 34.5218H32.3914C23.7527 47.8061 19.568 63.4958 20.4435 79.3177C21.319 95.1395 27.2093 110.272 37.2609 122.522Z" fill="black"/>
<path opacity="0.01" d="M30.5649 110.783L73.5215 106.435C76.6519 106.435 85.0867 103.87 85.0867 100.913V33.5653C85.0412 32.0968 84.4168 30.7059 83.3498 29.6959C82.2828 28.6859 80.8598 28.1388 79.391 28.174H37.9998C28.7082 39.6529 23.0366 53.6337 21.7051 68.3417C20.3737 83.0497 23.4424 97.8218 30.5215 110.783H30.5649Z" fill="black"/>
<path opacity="0.2" d="M43.6087 128.13H77.6523C79.527 128.126 81.3317 127.417 82.7086 126.145C84.0856 124.873 84.9344 123.129 85.087 121.261V48.9131C84.9442 47.0293 84.0938 45.2693 82.7065 43.9869C81.3192 42.7045 79.498 41.9947 77.6088 42.0001H29.1741C22.2202 56.0367 19.8718 71.9095 22.4635 87.3583C25.0552 102.807 32.4548 117.045 43.6087 128.044V128.13Z" fill="black"/>
<path opacity="0.3" d="M35.6955 118.783H77.652C79.5337 118.777 81.3441 118.062 82.7222 116.781C84.1002 115.5 84.9445 113.746 85.0868 111.87V41.4349C84.9336 39.5588 84.0785 37.8096 82.6923 36.5362C81.3061 35.2628 79.4908 34.5591 77.6085 34.5653H33.565C25.3492 47.1733 21.1651 61.9831 21.5689 77.0264C21.9728 92.0696 26.9455 106.634 35.826 118.783H35.6955Z" fill="black"/>
<path opacity="0.3" d="M35.3914 118.391H77.6523C79.5455 118.386 81.3669 117.666 82.7531 116.377C84.1393 115.087 84.9883 113.323 85.1305 111.435V41.4349C84.9773 39.5588 84.1223 37.8096 82.7361 36.5362C81.3499 35.2628 79.5345 34.5591 77.6523 34.5653H33.5653C25.391 47.1 21.1994 61.814 21.5408 76.7746C21.8822 91.7352 26.7407 106.243 35.4783 118.391H35.3914Z" fill="black"/>
<path opacity="0.3" d="M38.3475 122.304H77.4779C79.3895 122.343 81.2433 121.648 82.6584 120.363C84.0736 119.077 84.9425 117.298 85.0866 115.391V43.2175C84.9443 41.3296 84.0953 39.5648 82.7091 38.2753C81.3229 36.9859 79.5015 36.2665 77.6083 36.2609H32.3474C24.303 49.4549 20.5592 64.8234 21.6342 80.2389C22.7091 95.6544 28.5497 110.355 38.3475 122.304Z" fill="black"/>
<path opacity="0.2" d="M39.7827 123.913H77.6523C79.53 123.919 81.3402 123.213 82.7193 121.939C84.0984 120.665 84.9443 118.916 85.0871 117.044V44.8262C84.9443 42.9424 84.0938 41.1824 82.7066 39.9C81.3193 38.6175 79.498 37.9077 77.6088 37.9131H31.3914C23.6367 51.3296 20.2761 66.837 21.781 82.2602C23.2859 97.6834 29.5808 112.249 39.7827 123.913Z" fill="black"/>
<path opacity="0.1" d="M36.0434 120.87H83.8695C87.0434 120.87 89.5651 115.652 89.5651 112.696V42.6088C89.5426 41.8835 89.3774 41.1698 89.0789 40.5085C88.7805 39.8471 88.3546 39.2511 87.8256 38.7544C87.2966 38.2578 86.675 37.8702 85.9961 37.614C85.3173 37.3577 84.5947 37.2377 83.8695 37.2609H30.8695C23.1714 50.0842 19.5448 64.9411 20.4685 79.869C21.3923 94.7969 26.8231 109.093 36.0434 120.87Z" fill="black"/>
<path opacity="0.2" d="M35.8262 118.913H80.7392C81.4622 118.942 82.1839 118.828 82.8625 118.576C83.5411 118.325 84.1632 117.941 84.6928 117.448C85.2223 116.955 85.649 116.362 85.948 115.703C86.247 115.044 86.4124 114.332 86.4348 113.609V42.3479C86.4123 41.6227 86.2471 40.909 85.9486 40.2476C85.6502 39.5862 85.2243 38.9902 84.6953 38.4935C84.1663 37.9969 83.5447 37.6093 82.8658 37.3531C82.187 37.0968 81.4644 36.9769 80.7392 37.0001H32.087C24.5549 49.498 20.8906 63.9457 21.556 78.5226C22.2214 93.0996 27.1868 107.153 35.8262 118.913Z" fill="black"/>
<path opacity="0.3" d="M33.8257 116.044H81.2605C81.9857 116.067 82.7084 115.947 83.3872 115.691C84.066 115.434 84.6877 115.047 85.2167 114.55C85.7456 114.053 86.1715 113.457 86.47 112.796C86.7685 112.135 86.9337 111.421 86.9562 110.696V39.8696C86.9562 36.6957 79.2605 34.9131 78.2605 34.0001C75.8026 32.7741 73.0941 32.1342 70.3474 32.1305H34.7389C26.1828 44.4103 21.52 58.9807 21.3572 73.9464C21.1944 88.9121 25.5389 103.58 33.8257 116.044Z" fill="black"/>
<path opacity="0.1" d="M40.3476 124.565H82.9564C83.6815 124.583 84.403 124.457 85.0796 124.195C85.7562 123.934 86.3745 123.541 86.8994 123.041C87.4243 122.54 87.8454 121.941 88.1387 121.277C88.4319 120.614 88.5916 119.899 88.6085 119.174V46.174C88.563 44.7285 87.9478 43.3597 86.8971 42.3661C85.8464 41.3724 84.4455 40.8345 82.9998 40.8696H29.8259C22.8763 54.2392 20.1607 69.4073 22.0401 84.3576C23.9196 99.3078 30.305 113.332 40.3476 124.565Z" fill="black"/>
<path opacity="0.1" d="M31.4348 112.174L73.5217 107.826C76.6521 107.826 85.0869 105.261 85.0869 102.304V35.087C85.0814 34.3487 84.929 33.619 84.6386 32.9402C84.3482 32.2614 83.9257 31.6471 83.3956 31.1332C82.8655 30.6193 82.2385 30.2161 81.551 29.9469C80.8635 29.6777 80.1294 29.548 79.3913 29.5653H36.8696C27.8603 41.2374 22.5318 55.3286 21.5638 70.0414C20.5959 84.7543 24.0323 99.4221 31.4348 112.174Z" fill="black"/>
<path opacity="0.15" d="M32.2171 113.435L73.5215 109.087C76.6519 109.087 85.0867 106.522 85.0867 103.565V42.6957C85.0867 39.6957 79.7389 30.8696 73.8694 30.8696H35.8693C27.0829 42.698 22.0325 56.8825 21.3663 71.6021C20.7 86.3217 24.4484 100.905 32.1302 113.478L32.2171 113.435Z" fill="black"/>
</g>
<path d="M7.13063 32.1305H78.5654C79.5074 32.1305 80.4404 32.3161 81.3107 32.6766C82.1811 33.0371 82.9719 33.5655 83.638 34.2317C84.3042 34.8979 84.8327 35.6887 85.1932 36.5591C85.5538 37.4295 85.7392 38.3623 85.7392 39.3044V110.739C85.7393 111.679 85.5534 112.61 85.1923 113.478C84.8313 114.346 84.3023 115.134 83.6355 115.797C82.9688 116.459 82.1776 116.984 81.3074 117.339C80.4373 117.695 79.5054 117.875 78.5654 117.87H7.13063C6.19264 117.875 5.26277 117.695 4.39506 117.339C3.52735 116.982 2.739 116.457 2.07573 115.794C1.41245 115.131 0.887433 114.342 0.53114 113.475C0.174847 112.607 -0.00563822 111.677 0.000134212 110.739V39.3044C-0.00559781 38.3644 0.174573 37.4325 0.530344 36.5624C0.886114 35.6922 1.41051 34.901 2.07321 34.2343C2.7359 33.5676 3.52393 33.0385 4.39188 32.6774C5.25983 32.3164 6.19058 32.1305 7.13063 32.1305Z" fill="#C43E1C"/>
<path d="M43.0435 48.2174C48.3749 47.8329 53.6672 49.3759 57.9566 52.5653C59.6957 54.1251 61.0602 56.0573 61.9485 58.2178C62.8368 60.3784 63.226 62.7116 63.087 65.0435C63.158 68.1385 62.2613 71.1783 60.5218 73.7392C58.7719 76.485 56.2863 78.6843 53.348 80.087C49.959 81.6567 46.2557 82.43 42.5218 82.3479H32.261V101.739H21.7827V48.2174H43.0435ZM32.1306 73.3044H41.174C44.0405 73.4868 46.8778 72.6387 49.174 70.9131C50.0724 70.3248 50.7966 69.5061 51.2708 68.5425C51.7449 67.5789 51.9517 66.5056 51.8696 65.4348C51.8696 59.4783 48.4349 56.7392 41.5219 56.7392H32.1306V73.3044Z" fill="#F9F7F7"/>
</svg>
