<svg width="120" height="150" viewBox="0 0 120 150" fill="none" xmlns="http://www.w3.org/2000/svg">
<g clip-path="url(#clip0)">
<path fill-rule="evenodd" clip-rule="evenodd" d="M19.7508 -0.000133393H89.5888L119.032 29.3129V138.907C119.032 145.007 114.018 150 107.891 150H19.7503C13.6225 150 8.60864 145.008 8.60864 138.907V11.0916C8.60864 4.99103 13.6225 -0.000659943 19.7503 -0.000659943L19.7508 -0.000133393Z" fill="#64BAF4"/>
<path fill-rule="evenodd" clip-rule="evenodd" d="M91.2671 26.5041L119.032 29.3133V53.7936L91.2671 26.5041Z" fill="url(#paint0_linear)" fill-opacity="0.2"/>
<path fill-rule="evenodd" clip-rule="evenodd" d="M119.032 29.313H97.1454C92.9894 29.313 89.5886 25.9273 89.5886 21.7897V3.8147e-06L119.032 29.313V29.313Z" fill="#2D649B"/>
<path d="M107.978 89.4481H19.6641C18.3404 89.4481 17.2672 90.4137 17.2672 91.6048C17.2672 92.796 18.3404 93.7616 19.6641 93.7616H107.978C109.302 93.7616 110.375 92.796 110.375 91.6048C110.375 90.4137 109.302 89.4481 107.978 89.4481Z" fill="#2B66A0"/>
<path d="M107.978 98.7634H19.6641C18.3404 98.7634 17.2672 99.729 17.2672 100.92C17.2672 102.111 18.3404 103.077 19.6641 103.077H107.978C109.302 103.077 110.375 102.111 110.375 100.92C110.375 99.729 109.302 98.7634 107.978 98.7634Z" fill="#2B66A0"/>
<path d="M107.978 108.079H19.6641C18.3404 108.079 17.2672 109.044 17.2672 110.235C17.2672 111.427 18.3404 112.392 19.6641 112.392H107.978C109.302 112.392 110.375 111.427 110.375 110.235C110.375 109.044 109.302 108.079 107.978 108.079Z" fill="#2B66A0"/>
<path d="M107.978 117.394H19.6641C18.3404 117.394 17.2672 118.36 17.2672 119.551C17.2672 120.742 18.3404 121.708 19.6641 121.708H107.978C109.302 121.708 110.375 120.742 110.375 119.551C110.375 118.36 109.302 117.394 107.978 117.394Z" fill="#2B66A0"/>
<path d="M91.0936 126.709H19.2178C18.1405 126.709 17.2672 127.675 17.2672 128.866C17.2672 130.057 18.1405 131.023 19.2178 131.023H91.0936C92.1708 131.023 93.0441 130.057 93.0441 128.866C93.0441 127.675 92.1708 126.709 91.0936 126.709Z" fill="#2B66A0"/>
<path fill-rule="evenodd" clip-rule="evenodd" d="M0 75.3602H73.6106C78.1484 75.3602 81.8607 71.6639 81.8607 67.1466V39.8876C81.8607 35.3699 78.1479 31.674 73.6106 31.674H8.25017C3.71229 31.674 0 35.3704 0 39.8876V75.3602Z" fill="#2D649B"/>
<path d="M21.212 45.5574V65.7253H16.4567V45.5574H9.41345V41.1728H28.2557V45.5574H21.2125H21.212ZM43.1287 60.7447C41.5082 58.0324 40.7212 56.676 40.7688 56.676H40.7328C40.7804 56.676 40.0056 58.044 38.4089 60.78L35.4772 65.7253H29.8641L37.8731 53.0286L30.3649 41.1734H36.1214L38.9457 45.9086C40.471 48.4571 41.2099 49.7319 41.1623 49.7319H41.1982C41.1506 49.7319 41.8419 48.4576 43.272 45.9086L45.9895 41.1734H51.5312L44.059 53.1687L51.9606 65.7253H46.1328L43.1292 60.7447H43.1287ZM65.4029 45.5574V65.7253H60.6477V45.5574H53.6044V41.1728H72.4467V45.5574H65.4035H65.4029Z" fill="white"/>
<path fill-rule="evenodd" clip-rule="evenodd" d="M8.60929 75.3602H0L8.60929 84.3078V75.3602Z" fill="#094272"/>
</g>
<defs>
<linearGradient id="paint0_linear" x1="110.071" y1="32.5805" x2="124.681" y2="50.9287" gradientUnits="userSpaceOnUse">
<stop/>
<stop offset="0.14902" stop-color="#610602"/>
<stop offset="1" stop-color="#C30C04"/>
</linearGradient>
<clipPath id="clip0">
<rect width="119.032" height="150" fill="white"/>
</clipPath>
</defs>
</svg>
