<svg width="176" height="150" viewBox="0 0 176 150" fill="none" xmlns="http://www.w3.org/2000/svg">
<path d="M51.1402 0.000138963H167.95C169.874 -0.0117414 171.726 0.738568 173.099 2.08718C174.473 3.4358 175.257 5.27316 175.281 7.19798V142.846C175.269 143.797 175.07 144.737 174.695 145.611C174.321 146.485 173.778 147.277 173.097 147.941C172.416 148.605 171.611 149.129 170.728 149.482C169.845 149.835 168.901 150.011 167.95 149.999H51.1402C49.2038 149.995 47.3428 149.248 45.9418 147.911C45.2639 147.254 44.7256 146.466 44.3592 145.596C43.9927 144.726 43.8056 143.79 43.8091 142.846V7.19798C43.8047 6.24695 43.9912 5.30471 44.3576 4.42704C44.7239 3.54938 45.2626 2.75413 45.9418 2.0884C47.3661 0.788331 49.2123 0.0467056 51.1402 0.000138963Z" fill="#41A5EE"/>
<path d="M175.281 112.544H43.809V142.846C43.8206 143.797 44.0195 144.737 44.3942 145.611C44.7689 146.485 45.3121 147.277 45.9929 147.941C46.6737 148.605 47.4787 149.129 48.3618 149.482C49.245 149.835 50.189 150.011 51.1401 149.999H167.949C168.901 150.011 169.845 149.835 170.728 149.482C171.611 149.129 172.416 148.605 173.097 147.941C173.777 147.277 174.321 146.485 174.695 145.611C175.07 144.737 175.269 143.797 175.281 142.846V112.544Z" fill="#103F91"/>
<path d="M43.809 75.0442H175.281V112.544H43.809V75.0442Z" fill="#185ABD"/>
<path d="M43.809 37.5444H175.281V75.0442H43.809V37.5444Z" fill="#2B7CD3"/>
<g opacity="0.67">
<path opacity="0.05" d="M90.4173 30.6576H52.2955C51.9396 30.6517 51.586 30.716 51.2549 30.8468C50.9238 30.9776 50.6217 31.1723 50.3659 31.4199C50.1101 31.6674 49.9056 31.963 49.764 32.2896C49.6224 32.6162 49.5466 32.9675 49.5408 33.3234V116.809C49.5746 117.521 49.8784 118.193 50.3902 118.688C50.902 119.183 51.5834 119.465 52.2955 119.475H90.4173C91.8473 119.475 93.2194 118.91 94.2347 117.903C95.25 116.896 95.8262 115.529 95.8379 114.099V36.2115C95.844 35.5 95.7076 34.7946 95.4367 34.1366C95.1659 33.4787 94.7661 32.8817 94.261 32.3807C93.7558 31.8797 93.1555 31.4848 92.4954 31.2194C91.8353 30.954 91.1287 30.8234 90.4173 30.8353V30.6576Z" fill="black"/>
<path opacity="0.1" d="M80.2427 44.7422H43.8093V130.761H80.2427C82.125 130.797 83.9456 130.089 85.3096 128.792C86.6737 127.494 87.4713 125.711 87.5294 123.83V51.4513C87.4261 49.6049 86.6072 47.8715 85.2468 46.6189C83.8863 45.3663 82.0914 44.6931 80.2427 44.7422Z" fill="black"/>
<path opacity="0.2" d="M80.2427 39.8104H43.8093V125.785H80.2427C82.125 125.821 83.9456 125.113 85.3096 123.815C86.6737 122.518 87.4713 120.735 87.5294 118.853V46.6972C87.4713 44.8194 86.6723 43.0409 85.3069 41.7505C83.9415 40.46 82.1208 39.7625 80.2427 39.8104Z" fill="black"/>
<path opacity="0.1" d="M88.2403 32.346H50.1184C49.7646 32.3401 49.4132 32.4047 49.0846 32.536C48.756 32.6673 48.4569 32.8628 48.2046 33.1109C47.9523 33.359 47.752 33.6549 47.6153 33.9813C47.4785 34.3076 47.4081 34.658 47.4081 35.0118V118.453C47.4081 118.807 47.4785 119.158 47.6153 119.484C47.752 119.81 47.9523 120.106 48.2046 120.354C48.4569 120.602 48.756 120.798 49.0846 120.929C49.4132 121.061 49.7646 121.125 50.1184 121.119H88.2403C89.6703 121.131 91.0472 120.577 92.0708 119.579C93.0944 118.58 93.6819 117.217 93.7053 115.788V37.6777C93.6819 36.2478 93.0944 34.8851 92.0708 33.8864C91.0472 32.8878 89.6703 32.334 88.2403 32.346Z" fill="black"/>
<path opacity="0.1" d="M88.1069 34.5675H50.0294C49.6735 34.5616 49.3199 34.6259 48.9888 34.7567C48.6577 34.8875 48.3557 35.0822 48.0999 35.3298C47.8441 35.5774 47.6395 35.8729 47.4979 36.1995C47.3563 36.5261 47.2805 36.8775 47.2747 37.2334V119.831C47.2745 120.188 47.3463 120.543 47.4858 120.872C47.6253 121.201 47.8296 121.499 48.0866 121.748C48.3437 121.997 48.6482 122.191 48.982 122.32C49.3157 122.448 49.6719 122.509 50.0294 122.497H88.1069C88.8203 122.514 89.5301 122.39 90.1949 122.13C90.8597 121.871 91.4662 121.482 91.979 120.985C92.4918 120.489 92.9007 119.896 93.1819 119.24C93.463 118.584 93.6106 117.878 93.6163 117.165V39.8992C93.6047 39.1874 93.453 38.4848 93.1699 37.8315C92.8867 37.1783 92.4777 36.5872 91.9661 36.0921C91.4544 35.597 90.8503 35.2075 90.1881 34.9459C89.5259 34.6843 88.8188 34.5557 88.1069 34.5675Z" fill="black"/>
<path opacity="0.01" d="M81.9754 28.2583H43.898V98.415H43.3648V109.389C43.3648 109.743 43.4352 110.094 43.5719 110.42C43.7087 110.746 43.909 111.042 44.1613 111.29C44.4136 111.539 44.7127 111.734 45.0413 111.865C45.3699 111.997 45.7213 112.061 46.0751 112.055L76.5548 106.59C79.5761 106.59 87.707 104.058 87.707 101.081V33.59C87.7015 32.8726 87.5524 32.1635 87.2686 31.5045C86.9847 30.8456 86.5718 30.2501 86.0542 29.7532C85.5366 29.2563 84.9248 28.8681 84.2548 28.6113C83.5848 28.3546 82.8702 28.2346 82.1531 28.2583H81.9754Z" fill="black"/>
<path opacity="0.2" d="M80.2427 42.1652H43.8093V128.139H80.2427C82.1208 128.187 83.9415 127.49 85.3069 126.199C86.6723 124.909 87.4713 123.13 87.5294 121.253V49.0521C87.4713 47.1742 86.6723 45.3958 85.3069 44.1053C83.9415 42.8149 82.1208 42.1174 80.2427 42.1652Z" fill="black"/>
<path opacity="0.3" d="M80.2427 34.612H43.8093V119.031H80.2427C81.2136 119.068 82.1818 118.905 83.0873 118.553C83.9929 118.201 84.8168 117.667 85.5079 116.984C86.1991 116.301 86.7429 115.484 87.1059 114.583C87.4689 113.682 87.6433 112.716 87.6183 111.744V41.4988C87.5897 40.5612 87.3757 39.6385 86.9889 38.784C86.602 37.9295 86.0499 37.1599 85.3643 36.5198C84.6787 35.8796 83.8732 35.3815 82.9942 35.054C82.1152 34.7266 81.1801 34.5763 80.2427 34.612Z" fill="black"/>
<path opacity="0.3" d="M80.2427 34.612H43.8093V118.453H80.2427C82.1034 118.515 83.9147 117.848 85.2919 116.596C86.6691 115.343 87.5037 113.602 87.6183 111.744V41.4988C87.5897 40.5612 87.3757 39.6385 86.9889 38.784C86.602 37.9295 86.0499 37.1599 85.3643 36.5198C84.6787 35.8796 83.8732 35.3815 82.9942 35.054C82.1152 34.7266 81.1801 34.5763 80.2427 34.612Z" fill="black"/>
<path opacity="0.3" d="M80.2427 36.2115H43.8093V122.319H80.2427C82.1208 122.367 83.9415 121.669 85.3069 120.379C86.6723 119.088 87.4713 117.31 87.5294 115.432V43.2316C87.518 42.2904 87.3197 41.3608 86.9461 40.4968C86.5725 39.6329 86.0312 38.8517 85.3533 38.1986C84.6754 37.5455 83.8746 37.0336 82.9973 36.6925C82.12 36.3514 81.1837 36.1879 80.2427 36.2115Z" fill="black"/>
<path opacity="0.2" d="M80.2427 37.9443H43.8093V123.963H80.2427C82.125 123.999 83.9456 123.291 85.3096 121.994C86.6737 120.696 87.4713 118.913 87.5294 117.032V45.0977C87.5357 44.1452 87.3505 43.2013 86.9848 42.3218C86.6191 41.4423 86.0805 40.6453 85.4008 39.978C84.7211 39.3108 83.9143 38.7869 83.0282 38.4376C82.1421 38.0882 81.1949 37.9204 80.2427 37.9443Z" fill="black"/>
<path opacity="0.1" d="M87.2629 37.0112H49.1411C48.7851 37.0054 48.4315 37.0697 48.1004 37.2005C47.7694 37.3313 47.4673 37.526 47.2115 37.7735C46.9557 38.0211 46.7511 38.3166 46.6095 38.6432C46.468 38.9698 46.3921 39.3212 46.3864 39.6771V118.053C46.3921 118.409 46.468 118.761 46.6095 119.087C46.7511 119.414 46.9557 119.709 47.2115 119.957C47.4673 120.205 47.7694 120.399 48.1004 120.53C48.4315 120.661 48.7851 120.725 49.1411 120.719H87.2629C87.9727 120.725 88.6765 120.59 89.3339 120.323C89.9913 120.055 90.5893 119.66 91.0932 119.161C91.5972 118.661 91.9971 118.066 92.27 117.411C92.543 116.756 92.6835 116.053 92.6835 115.343V42.3874C92.6718 40.9575 92.0955 39.5901 91.0802 38.5832C90.0649 37.5762 88.6929 37.0112 87.2629 37.0112Z" fill="black"/>
<path opacity="0.2" d="M82.9975 37.0112H44.9201C44.5828 36.9442 44.2356 36.9442 43.8983 37.0112V118.853C44.2374 118.898 44.581 118.898 44.9201 118.853H82.9975C83.7094 118.859 84.4155 118.725 85.0754 118.458C85.7353 118.191 86.3361 117.796 86.8436 117.297C87.351 116.798 87.7552 116.204 88.033 115.548C88.3108 114.893 88.4568 114.189 88.4626 113.477V42.3874C88.4568 41.6755 88.3108 40.9718 88.033 40.3164C87.7552 39.6609 87.351 39.0666 86.8436 38.5674C86.3361 38.0682 85.7353 37.6738 85.0754 37.4068C84.4155 37.1398 83.7094 37.0054 82.9975 37.0112Z" fill="black"/>
<path opacity="0.3" d="M73.4004 32.3904H45.7198C45.0043 32.39 44.3168 32.668 43.8027 33.1656C43.2886 33.6631 42.9882 34.3412 42.9651 35.0563V113.388C42.9709 113.744 43.0467 114.095 43.1883 114.422C43.3299 114.749 43.5344 115.044 43.7902 115.292C44.046 115.539 44.3481 115.734 44.6792 115.865C45.0103 115.996 45.3639 116.06 45.7198 116.054H83.7972C85.2273 116.066 86.6041 115.512 87.6277 114.514C88.6514 113.515 89.2389 112.152 89.2623 110.722V40.1214C89.2623 36.9224 81.8867 35.234 81.0425 34.2565C78.6776 33.0414 76.0592 32.402 73.4004 32.3904Z" fill="black"/>
<path opacity="0.1" d="M85.3967 40.8767H47.3192C46.6038 40.8764 45.9163 41.1543 45.4021 41.6519C44.888 42.1494 44.5876 42.8275 44.5645 43.5426V121.919C44.5876 122.634 44.888 123.312 45.4021 123.81C45.9163 124.307 46.6038 124.585 47.3192 124.585H85.3967C86.1085 124.591 86.8145 124.456 87.4744 124.189C88.1343 123.922 88.7352 123.528 89.2426 123.029C89.7501 122.529 90.1543 121.935 90.4321 121.28C90.7099 120.624 90.8559 119.921 90.8617 119.209V46.2529C90.85 44.823 90.2737 43.4556 89.2584 42.4486C88.2431 41.4417 86.871 40.8767 85.4411 40.8767H85.3967Z" fill="black"/>
<path opacity="0.1" d="M81.9754 29.7245H43.898V99.7923H43.3648V110.767C43.3648 111.121 43.4352 111.471 43.5719 111.797C43.7087 112.124 43.909 112.42 44.1613 112.668C44.4136 112.916 44.7127 113.111 45.0413 113.243C45.3699 113.374 45.7213 113.439 46.0751 113.433L76.5548 108.012C79.5761 108.012 87.707 105.435 87.707 102.458V35.0118C87.6605 33.5701 87.046 32.2051 85.9972 31.2147C84.9485 30.2242 83.5508 29.6886 82.1087 29.7245H81.9754Z" fill="black"/>
<path opacity="0.15" d="M81.9754 31.2352H43.898V101.125H43.3648V112.1C43.3648 112.454 43.4352 112.804 43.5719 113.13C43.7087 113.457 43.909 113.753 44.1613 114.001C44.4136 114.249 44.7127 114.444 45.0413 114.576C45.3699 114.707 45.7213 114.771 46.0751 114.766L76.5548 109.345C79.5761 109.345 87.707 106.768 87.707 103.791V36.4336C87.6785 35.7177 87.5084 35.0145 87.2065 34.3647C86.9045 33.7149 86.4767 33.1314 85.9479 32.648C85.419 32.1646 84.7995 31.7908 84.1253 31.5483C83.4511 31.3058 82.7354 31.1994 82.0198 31.2352H81.9754Z" fill="black"/>
</g>
<path d="M7.28674 32.1682H80.2426C82.1557 32.1563 83.9959 32.902 85.3611 34.2423C86.7264 35.5825 87.5058 37.4086 87.5293 39.3216V110.722C87.5234 111.673 87.3303 112.614 86.961 113.491C86.5916 114.367 86.0533 115.162 85.3766 115.83C84.7 116.499 83.8984 117.027 83.0175 117.386C82.1366 117.745 81.1936 117.926 80.2426 117.92H7.28674C5.36231 117.88 3.52309 117.119 2.13272 115.788C1.45484 115.13 0.916598 114.343 0.550147 113.472C0.183696 112.602 -0.00341568 111.667 4.72007e-05 110.722V39.2772C0.0350819 37.3719 0.819632 35.5572 2.18363 34.2265C3.54764 32.8958 5.38117 32.1562 7.28674 32.1682Z" fill="#185ABD"/>
<path d="M66.2469 101.836H56.4276L44.9199 64.8695L32.8791 101.836H23.0154L12.0409 48.2523H21.9046L29.5467 85.7521L41.0544 49.3186H49.2742L60.2486 85.7521L67.8908 48.2523H77.2213L66.2469 101.836Z" fill="white"/>
</svg>
